<svg t="1721011139373" class="icon" viewBox="0 0 1024 1024" version="1.1" xmlns="http://www.w3.org/2000/svg" p-id="10281" width="200" height="200"><path d="M512 0c282.772211 0 512 229.227789 512 512S794.772211 1024 512 1024 0 794.772211 0 512 229.227789 0 512 0z m-132.217263 463.898947a15.36 15.36 0 0 0-11.250526 4.729264 15.440842 15.440842 0 0 0-4.742737 11.264v32.067368c0 36.877474 12.261053 68.985263 36.890947 96.256 24.589474 27.311158 54.999579 42.940632 91.216842 46.942316v33.010526h-64.053895a15.36 15.36 0 0 0-11.264 4.71579 15.440842 15.440842 0 0 0-4.742736 11.277473c0 4.311579 1.589895 8.097684 4.742736 11.264 3.152842 3.152842 6.952421 4.729263 11.264 4.729263H587.991579c4.311579 0 8.097684-1.576421 11.264-4.729263 3.152842-3.166316 4.729263-6.952421 4.729263-11.264a15.36 15.36 0 0 0-4.729263-11.264 15.440842 15.440842 0 0 0-11.264-4.742737h-64.053895v-32.997052c36.203789-3.947789 66.627368-19.577263 91.257263-46.888421 24.576-27.270737 36.890947-59.324632 36.890948-96.215579v-32.053895c0-4.365474-1.576421-8.111158-4.783158-11.317895a15.440842 15.440842 0 0 0-11.264-4.729263 15.36 15.36 0 0 0-11.264 4.729263 15.440842 15.440842 0 0 0-4.729263 11.264V512c0 30.949053-10.954105 57.263158-32.956632 79.211789-21.948632 21.948632-48.370526 32.889263-79.211789 32.889264-30.895158 0-57.263158-10.994526-79.21179-32.943158-21.935158-21.948632-32.889263-48.370526-32.889263-79.21179v-32.053894c0-4.311579-1.576421-8.097684-4.742737-11.264a15.440842 15.440842 0 0 0-11.250526-4.729264zM507.957895 303.791158c-22.042947 0-40.892632 7.841684-56.576 23.525053-15.683368 15.683368-23.525053 34.573474-23.525053 56.589473V512c0 22.096842 7.841684 40.892632 23.525053 56.589474 15.683368 15.669895 34.533053 23.511579 56.589473 23.511579 22.042947 0 40.879158-7.841684 56.562527-23.525053 15.683368-15.683368 23.538526-34.573474 23.538526-56.576v-128.107789c0-22.056421-7.895579-40.892632-23.538526-56.576-15.683368-15.683368-34.519579-23.525053-56.576-23.525053z" fill="#409EFF" p-id="10282"></path></svg>